# xmcd CD database file
#
# Track frame offsets:
#	150
#	15837
#	43192
#	68299
#	94589
#
# Disc length: 1505 seconds
#
# Revision: 2
# Processed by: cddbd v1.4b41PL1 Copyright (c) Steve Scherf et al.
# Submitted via: Feurio! 1.50.2ß - http://www.feurio.com
#
DISCID=2b05df05
DTITLE=U ME 2 feat.Anka - The Night
DYEAR=1900
DGENRE=
TTITLE0=The Night (Radio Fazi Mix)
TTITLE1=The Night (Fresh System Mix)
TTITLE2=Fantasy Melody (Origenal Mix)
TTITLE3=The Night (Crazy Z Mix)
TTITLE4=The Night (Dj Goldennose Piano Mix)
EXTD=
EXTT0=
EXTT1=
EXTT2=
EXTT3=
EXTT4=
PLAYORDER=
